<svg width="14" height="14" viewBox="0 0 14 14" fill="none" xmlns="http://www.w3.org/2000/svg">
<path d="M12.3394 0.354844C12.1259 0.126052 11.8316 0 11.5105 0H10.628C9.97764 0 9.35694 0.521106 9.24452 1.16168L9.18887 1.47847C9.13292 1.79724 9.20822 2.09917 9.40094 2.32866C9.59366 2.55815 9.87799 2.6845 10.2017 2.6845H11.3416C11.4998 2.6845 11.6527 2.65291 11.7949 2.59685L11.6737 3.63189C11.5571 3.58288 11.4291 3.55678 11.2945 3.55678H9.9939C9.43672 3.55678 8.88944 4.0002 8.77382 4.5452L7.62392 9.96647L2.19845 9.5766C1.90527 9.55562 1.66051 9.65498 1.50875 9.85009C1.36662 10.0328 1.32507 10.278 1.39168 10.5405L2.02246 13.0241C2.15912 13.5622 2.72201 14 3.27715 14H7.82555H7.89496H10.2102C10.7728 14 11.2788 13.5448 11.3381 12.9854L12.2281 4.59468C12.2332 4.54671 12.2337 4.49945 12.2321 4.45266L12.5367 1.85074C12.5797 1.73867 12.6071 1.61956 12.6156 1.49601L12.6358 1.20638C12.6582 0.886091 12.5529 0.583695 12.3394 0.354844Z" fill="#333333"/>
</svg>
