<svg width="127" height="86" viewBox="0 0 127 86" fill="none" xmlns="http://www.w3.org/2000/svg">
<path d="M56.4565 82.6803L33.9391 85.8834C27.5915 86.7831 22.4385 82.364 22.4385 76.0071C22.4385 69.6503 27.5817 63.7581 33.9391 62.8585L56.4565 59.6553C62.804 58.7557 67.9571 63.1748 67.9571 69.5317C67.9571 75.8885 62.8139 81.7708 56.4565 82.6803Z" fill="#56CCF2"/>
<path d="M109.665 44.9054L65.4695 51.193C58.3915 52.2014 52.656 47.2682 52.656 40.1798V21.0698C52.656 13.9813 58.3915 7.42681 65.4695 6.41841L109.665 0.130769C116.743 -0.877624 122.479 4.05561 122.479 11.144V30.2541C122.479 37.3425 116.743 43.9069 109.665 44.9054Z" fill="#56CCF2"/>
<path d="M101.649 64.7369L17.552 76.6894C10.474 77.6977 4.73853 72.7645 4.73853 65.6761V37.4807C4.73853 30.3922 10.474 23.8377 17.552 22.8293L101.649 10.8769C108.727 9.86847 114.463 14.8017 114.463 21.8901V50.0856C114.463 57.174 108.727 63.7285 101.649 64.7369Z" fill="url(#paint0_linear)"/>
<path d="M99.7145 76.5313L92.9227 77.5001C91.0076 77.7769 89.4578 76.4423 89.4578 74.5145C89.4578 72.5965 91.0076 70.817 92.9227 70.5501L99.7145 69.5813C101.63 69.3044 103.179 70.6391 103.179 72.5669C103.179 74.4848 101.63 76.2544 99.7145 76.5313Z" fill="#56CCF2"/>
<path d="M10.2567 78.8945L3.46498 79.8634C1.54986 80.1402 0 78.8056 0 76.8777C0 74.9598 1.54986 73.1803 3.46498 72.9134L10.2567 71.9445C12.1719 71.6677 13.7217 73.0024 13.7217 74.9302C13.7217 76.8382 12.1719 78.6177 10.2567 78.8945Z" fill="#56CCF2"/>
<path d="M124.72 49.9478L120.248 50.5805C118.984 50.7584 117.967 49.8786 117.967 48.623C117.967 47.3576 118.994 46.191 120.248 46.013L124.72 45.3803C125.983 45.2023 127 46.0822 127 47.3378C127 48.5933 125.983 49.7698 124.72 49.9478Z" fill="#56CCF2"/>
<path d="M30.0198 27.2984L17.8282 29.0285C14.3928 29.5129 11.5991 27.1204 11.5991 23.68C11.5991 20.2396 14.383 17.0464 17.8282 16.5619L30.0198 14.8318C33.4552 14.3474 36.2489 16.7399 36.2489 20.1803C36.2489 23.6207 33.465 26.8139 30.0198 27.2984Z" fill="#56CCF2"/>
<path d="M54.3096 45.074C52.6949 45.3036 51.38 45.0828 50.365 44.4117C49.3731 43.7139 48.8195 42.6743 48.7042 41.2927C48.6581 40.6003 48.635 40.1026 48.635 39.7997C48.635 39.4735 48.6581 38.8412 48.7042 37.9026C48.7965 36.4682 49.327 35.2744 50.2958 34.3211C51.2877 33.3413 52.6257 32.7316 54.3096 32.4922C55.9935 32.2527 57.3199 32.4835 58.2887 33.1845C59.2806 33.8589 59.8227 34.9002 59.915 36.3084C59.9611 37.2338 59.9842 37.8596 59.9842 38.1858C59.9842 38.4887 59.9611 38.9929 59.915 39.6985C59.7997 41.1128 59.2345 42.3116 58.2195 43.2947C57.2276 44.2512 55.9243 44.8443 54.3096 45.074ZM51.6799 57.5055C51.4262 57.5415 51.2185 57.5128 51.0571 57.4193C50.9187 57.2992 50.8495 57.1343 50.8495 56.9246C50.8495 56.7848 50.8956 56.6501 50.9879 56.5204L68.0809 31.3726C68.2654 31.1133 68.4384 30.9256 68.5999 30.8095C68.7845 30.6667 69.0267 30.574 69.3265 30.5314L72.9251 30.0196C73.1788 29.9836 73.3749 30.0256 73.5133 30.1457C73.6748 30.2392 73.7555 30.3908 73.7555 30.6005C73.7555 30.7403 73.7094 30.875 73.6171 31.0047L56.5241 56.1525C56.3395 56.4118 56.155 56.6128 55.9705 56.7555C55.809 56.8717 55.5783 56.9511 55.2784 56.9937L51.6799 57.5055ZM54.3096 41.2994C54.8401 41.224 55.1285 40.8335 55.1746 40.1279C55.2208 39.469 55.2438 38.9764 55.2438 38.6502C55.2438 38.2541 55.2208 37.7798 55.1746 37.2271C55.1285 36.5347 54.8401 36.2262 54.3096 36.3017C53.779 36.3771 53.4907 36.7676 53.4446 37.4732C53.4215 37.756 53.41 38.2353 53.41 38.911C53.41 39.5634 53.4215 40.051 53.4446 40.374C53.4907 41.0664 53.779 41.3749 54.3096 41.2994ZM70.4338 55.0133C68.8191 55.2429 67.5042 55.0221 66.4892 54.351C65.4973 53.6532 64.9437 52.6136 64.8284 51.232C64.7822 50.5396 64.7592 50.0419 64.7592 49.739C64.7592 49.4128 64.7822 48.7805 64.8284 47.8419C64.9206 46.4075 65.4512 45.2137 66.42 44.2604C67.4119 43.2806 68.7499 42.6709 70.4338 42.4315C72.1177 42.192 73.4441 42.4228 74.4129 43.1238C75.4048 43.7982 75.9469 44.8395 76.0392 46.2477C76.0853 47.1731 76.1084 47.7989 76.1084 48.1251C76.1084 48.428 76.0853 48.9322 76.0392 49.6377C75.9239 51.0521 75.3587 52.2509 74.3437 53.234C73.3518 54.1905 72.0485 54.7836 70.4338 55.0133ZM70.4338 51.2387C70.9643 51.1633 71.2527 50.7728 71.2988 50.0672C71.345 49.4083 71.368 48.9157 71.368 48.5895C71.368 48.1934 71.345 47.7191 71.2988 47.1664C71.2527 46.474 70.9643 46.1655 70.4338 46.241C69.9032 46.3164 69.6149 46.7069 69.5688 47.4125C69.5457 47.6953 69.5342 48.1746 69.5342 48.8503C69.5342 49.5027 69.5457 49.9903 69.5688 50.3133C69.6149 51.0057 69.9032 51.3142 70.4338 51.2387Z" fill="white"/>
<defs>
<linearGradient id="paint0_linear" x1="59.6007" y1="10.7461" x2="59.6007" y2="76.8201" gradientUnits="userSpaceOnUse">
<stop stop-color="#E31D00"/>
<stop offset="1" stop-color="#B97B72"/>
</linearGradient>
</defs>
</svg>
