<svg width="13140" height="2560" viewBox="0 0 13140 2560" fill="none" xmlns="http://www.w3.org/2000/svg">
<g id="fw logo main copy">
<path id="Shape" fill-rule="evenodd" clip-rule="evenodd" d="M4265.73 519.414H4270.9C4296.74 519.414 4312.25 540.623 4312.25 567.134V1797.24C4312.25 1818.45 4296.74 1839.66 4270.9 1839.66C4250.23 1839.66 4229.55 1823.75 4229.55 1797.24V561.832C4229.55 540.623 4245.06 519.414 4265.73 519.414ZM3133.9 583.055H3914.3C3940.15 583.055 3955.65 609.566 3955.65 630.774C3955.65 651.983 3940.15 673.192 3914.3 673.192H3175.25V1187.5H3841.95C3862.62 1187.5 3883.29 1203.41 3883.29 1229.92C3883.29 1251.13 3867.79 1272.34 3841.95 1272.34H3180.41V1802.56C3175.25 1829.07 3154.57 1850.28 3128.73 1850.28C3102.89 1850.28 3082.22 1829.07 3082.22 1802.56V630.774H3087.39C3087.39 604.263 3108.06 583.055 3133.9 583.055ZM5397.61 964.804C5397.61 938.293 5376.93 922.386 5356.26 922.386C5330.42 922.386 5314.91 943.595 5314.91 964.804V1479.12C5314.91 1654.09 5175.37 1791.94 5004.82 1786.64C4823.93 1786.64 4720.57 1664.69 4720.57 1473.81V964.804C4720.57 938.293 4699.89 922.386 4679.22 922.386C4658.55 922.386 4637.87 943.595 4637.87 964.804V1489.72C4637.87 1707.11 4772.25 1866.17 4994.48 1866.17C5128.86 1871.48 5258.06 1797.25 5320.08 1675.3V1807.85C5320.08 1834.36 5340.76 1850.27 5361.43 1850.27C5387.27 1850.27 5402.78 1829.06 5402.78 1807.85H5397.61V964.804ZM6183.17 970.068C6183.17 991.277 6162.5 1007.18 6141.83 1007.18H5857.57V1595.73C5857.57 1728.28 5929.93 1776 6038.46 1776C6074.64 1776 6110.82 1770.7 6141.83 1760.09C6162.5 1760.09 6178 1776 6178 1797.21C6178 1813.12 6167.67 1829.02 6152.16 1834.32C6110.82 1850.23 6064.3 1855.53 6022.96 1855.53C5888.58 1855.53 5774.88 1776 5774.88 1606.33V1007.18H5676.69C5656.01 1007.18 5635.34 985.975 5635.34 964.766C5635.34 943.557 5656.01 927.651 5676.69 927.651H5774.88V673.146C5774.88 651.937 5790.39 630.729 5811.06 630.729H5816.23C5836.9 630.729 5857.57 651.937 5857.57 673.146V927.651H6141.83C6162.5 927.651 6183.17 948.859 6183.17 970.068ZM6844.7 1007.18C6865.37 1007.18 6886.04 991.277 6886.04 970.068C6886.04 948.859 6865.37 927.651 6844.7 927.651H6560.44V673.146C6560.44 651.937 6539.77 630.729 6519.1 630.729H6513.93C6493.26 630.729 6477.75 651.937 6477.75 673.146V927.651H6379.56C6358.88 927.651 6338.21 943.557 6338.21 964.766C6338.21 985.975 6358.88 1007.18 6379.56 1007.18H6477.75V1606.33C6477.75 1776 6591.45 1855.53 6725.83 1855.53C6767.17 1855.53 6813.69 1850.23 6855.03 1834.32C6870.54 1829.02 6880.88 1813.12 6880.88 1797.21C6880.88 1776 6865.37 1760.09 6844.7 1760.09C6813.69 1770.7 6777.51 1776 6741.33 1776C6632.8 1776 6560.44 1728.28 6560.44 1595.73V1007.18H6844.7ZM7041.12 1383.67C7041.12 1113.25 7222.01 901.167 7464.92 901.167C7718.16 901.167 7878.38 1113.25 7878.38 1383.67C7878.38 1404.87 7857.71 1426.08 7837.03 1426.08H7134.15C7149.66 1654.08 7309.87 1786.63 7485.59 1786.63C7594.13 1786.63 7702.66 1738.91 7775.02 1659.38C7780.18 1654.08 7790.52 1648.77 7800.86 1648.77C7821.53 1648.77 7842.2 1669.98 7842.2 1691.19C7842.2 1701.8 7837.03 1712.4 7826.7 1723.01C7738.84 1823.75 7609.63 1876.77 7480.43 1871.47C7242.69 1871.47 7041.12 1680.59 7041.12 1388.97V1383.67ZM7128.96 1341.23C7144.47 1139.74 7284.01 985.982 7459.73 985.982C7661.29 985.982 7769.82 1155.65 7780.16 1341.23H7128.96ZM8214.29 1192.8C8271.14 1039.04 8410.68 927.693 8570.89 917.088C8596.74 917.088 8617.41 938.297 8617.41 970.11C8617.41 991.319 8601.9 1017.83 8576.06 1017.83H8570.89C8379.67 1039.04 8214.29 1182.2 8214.29 1479.12V1818.46C8209.12 1844.97 8193.61 1860.88 8167.77 1860.88C8147.1 1860.88 8126.43 1839.67 8126.43 1818.46V970.11C8131.59 943.599 8147.1 927.693 8172.94 927.693C8193.61 927.693 8214.29 948.902 8214.29 970.11V1192.8ZM9981.85 869.374C9919.83 869.374 9868.15 911.791 9852.65 975.417L9702.77 1468.52L9552.89 975.417C9537.38 911.791 9480.53 864.072 9413.35 864.072H9397.84C9330.65 864.072 9273.8 906.489 9258.3 975.417L9108.42 1463.22L8963.71 970.115C8948.2 911.791 8896.52 864.072 8834.5 864.072H8829.33C8762.15 864.072 8710.46 922.396 8710.46 991.324C8710.46 1012.53 8715.63 1033.74 8720.8 1054.94L8720.8 1054.95L8953.37 1738.93C8968.88 1807.86 9025.73 1855.58 9098.08 1860.88H9108.42C9175.61 1860.88 9232.46 1813.16 9253.13 1744.23L9403.01 1256.43L9552.89 1744.23C9568.39 1813.16 9630.41 1860.88 9697.6 1860.88H9707.94C9780.29 1860.88 9842.31 1813.16 9857.81 1738.93L10090.4 1049.65C10095.6 1033.74 10100.7 1012.53 10100.7 996.626V991.324C10100.7 922.396 10049 869.374 9981.85 869.374ZM10343.6 917.054C10441.8 885.241 10540 864.032 10643.3 869.334C10788 869.334 10891.4 911.752 10968.9 980.68C11041.3 1065.51 11077.5 1176.86 11072.3 1288.21V1722.99C11072.3 1797.22 11015.4 1855.54 10943.1 1855.54C10875.9 1855.54 10819 1807.82 10813.9 1738.89C10741.5 1818.42 10638.2 1866.14 10529.6 1860.84C10359.1 1860.84 10209.2 1754.8 10209.2 1563.92C10209.2 1351.83 10364.2 1251.09 10586.5 1251.09C10664 1251.09 10741.5 1261.7 10813.9 1288.21V1272.3C10813.9 1155.65 10746.7 1097.33 10612.3 1097.33C10550.3 1097.33 10488.3 1102.63 10426.3 1123.84C10415.9 1129.14 10400.4 1129.14 10390.1 1129.14C10328.1 1134.44 10276.4 1086.72 10276.4 1023.1C10276.4 975.378 10302.2 932.96 10343.6 917.054ZM10819.1 1500.3C10819.1 1606.34 10731.2 1669.97 10607.2 1664.67C10524.5 1664.67 10462.5 1622.25 10462.5 1548.02V1542.72C10462.5 1463.18 10534.8 1410.16 10648.5 1410.16C10705.4 1410.16 10767.4 1426.07 10819.1 1447.28V1500.3ZM11868.2 959.511C11883.7 901.187 11935.4 864.072 11992.2 864.072C12064.6 864.072 12121.5 922.396 12121.5 991.324V996.626C12121.5 1017.83 12116.3 1039.04 12105.9 1060.25L11826.9 1744.23C11801 1813.16 11739 1855.58 11671.8 1860.88H11656.3C11584 1855.58 11527.1 1807.86 11506.4 1738.93L11217 1054.95C11206.7 1033.74 11201.5 1012.53 11201.5 991.324C11206.7 917.093 11263.5 864.072 11330.7 864.072C11392.7 864.072 11444.4 906.489 11459.9 964.813L11661.5 1521.54L11868.2 959.511ZM12690 858.775C12416.1 858.775 12224.9 1086.77 12224.9 1362.48V1404.9C12235.2 1670.01 12457.4 1876.79 12715.8 1860.89C12834.7 1860.89 12948.4 1823.77 13041.4 1744.24C13067.3 1723.03 13077.6 1696.52 13077.6 1664.71V1659.4C13077.6 1601.08 13031.1 1553.36 12974.3 1553.36C12953.6 1553.36 12927.7 1558.66 12912.2 1574.57C12855.4 1616.99 12788.2 1643.5 12721 1638.2C12607.3 1643.5 12509.1 1563.96 12493.6 1447.32H13025.9C13093.1 1442.01 13144.8 1383.69 13139.6 1314.76V1293.55C13139.6 1054.96 12938.1 853.472 12690 858.775ZM12690 1081.43C12581.4 1081.43 12509.1 1160.96 12488.4 1288.21H12886.4C12870.9 1166.26 12798.5 1081.43 12690 1081.43Z" fill="black"/>
<path id="Shape_2" fill-rule="evenodd" clip-rule="evenodd" d="M1878.16 32.1181C3047.79 -136.938 2299.23 822.703 1935.34 1091.2C2184.86 1275.18 2439.58 1533.73 2548.75 1827.09C2751.49 2364.1 2252.44 2443.65 1878.16 2309.4C1467.48 2170.18 1103.59 1871.84 864.468 1523.79C796.889 1523.79 724.111 1513.84 656.532 1493.96C791.69 1861.9 848.873 2239.79 812.484 2548.07C812.484 1926.54 505.779 1309.98 63.9149 797.842C-92.037 618.842 69.1133 484.591 209.47 658.62C303.954 784.653 390.739 915.808 469.39 1051.43C620.143 544.258 1368.71 101.729 1878.16 32.1181ZM1711.83 946.994C1940.55 812.743 2637.14 91.7692 1987.34 156.408C1613.06 196.186 1160.8 529.326 973.653 743.132C1233.57 713.298 1498.69 822.688 1711.83 946.994ZM968.449 902.264C1145.19 887.348 1337.54 976.848 1483.09 1066.35C1342.73 1130.99 1186.78 1170.76 1025.63 1180.71C786.506 1180.71 739.72 922.153 968.449 902.264ZM1067.18 1503.88C1275.12 1727.63 1561.03 1946.41 1867.74 2025.97C2044.48 2070.72 2242.02 2050.83 2169.24 1807.19C2096.46 1583.44 1909.32 1384.55 1727.38 1235.38C1675.39 1270.19 1618.21 1304.99 1561.03 1329.86C1405.08 1414.38 1238.73 1474.05 1067.18 1503.88Z" fill="#F5A623"/>
</g>
</svg>
