<svg width="674" height="133" viewBox="0 0 674 133" fill="none" xmlns="http://www.w3.org/2000/svg">
<path fill-rule="evenodd" clip-rule="evenodd" d="M222.785 31.0312H223.048C224.361 31.0312 225.149 32.0744 225.149 33.3784V93.8816C225.149 94.9248 224.361 95.9679 223.048 95.9679C221.997 95.9679 220.947 95.1856 220.947 93.8816V33.1176C220.947 32.0744 221.735 31.0312 222.785 31.0312ZM165.27 34.1609H204.927C206.24 34.1609 207.028 35.4649 207.028 36.508C207.028 37.5512 206.24 38.5943 204.927 38.5943H167.371V63.891H201.25C202.3 63.891 203.351 64.6733 203.351 65.9773C203.351 67.0205 202.563 68.0636 201.25 68.0636H167.633V94.1426C167.371 95.4466 166.32 96.4897 165.007 96.4897C163.694 96.4897 162.644 95.4466 162.644 94.1426V36.508H162.906C162.906 35.2041 163.957 34.1609 165.27 34.1609ZM280.3 52.9375C280.3 51.6336 279.25 50.8512 278.199 50.8512C276.886 50.8512 276.098 51.8944 276.098 52.9375V78.2342C276.098 86.8402 269.007 93.6208 260.341 93.36C251.149 93.36 245.896 87.3618 245.896 77.9734V52.9375C245.896 51.6336 244.846 50.8512 243.795 50.8512C242.745 50.8512 241.694 51.8944 241.694 52.9375V78.7557C241.694 89.4481 248.523 97.2718 259.816 97.2718C266.644 97.5326 273.21 93.8816 276.361 87.8834V94.4031C276.361 95.7071 277.412 96.4895 278.462 96.4895C279.775 96.4895 280.563 95.4463 280.563 94.4031H280.3V52.9375ZM320.219 53.198C320.219 54.2412 319.168 55.0235 318.118 55.0235H303.673V83.9712C303.673 90.491 307.35 92.8381 312.865 92.8381C314.704 92.8381 316.542 92.5773 318.118 92.0557C319.168 92.0557 319.956 92.8381 319.956 93.8812C319.956 94.6636 319.431 95.446 318.643 95.7068C316.542 96.4891 314.178 96.7499 312.077 96.7499C305.249 96.7499 299.471 92.8381 299.471 84.4928V55.0235H294.481C293.431 55.0235 292.38 53.9804 292.38 52.9372C292.38 51.8941 293.431 51.1117 294.481 51.1117H299.471V38.5938C299.471 37.5506 300.259 36.5075 301.31 36.5075H301.572C302.623 36.5075 303.673 37.5506 303.673 38.5938V51.1117H318.118C319.168 51.1117 320.219 52.1549 320.219 53.198ZM353.836 55.0235C354.887 55.0235 355.937 54.2412 355.937 53.198C355.937 52.1549 354.887 51.1117 353.836 51.1117H339.392V38.5938C339.392 37.5506 338.341 36.5075 337.291 36.5075H337.028C335.978 36.5075 335.19 37.5506 335.19 38.5938V51.1117H330.2C329.149 51.1117 328.099 51.8941 328.099 52.9372C328.099 53.9804 329.149 55.0235 330.2 55.0235H335.19V84.4928C335.19 92.8381 340.967 96.7499 347.796 96.7499C349.897 96.7499 352.26 96.4891 354.361 95.7068C355.149 95.446 355.675 94.6636 355.675 93.8812C355.675 92.8381 354.887 92.0557 353.836 92.0557C352.26 92.5773 350.422 92.8381 348.584 92.8381C343.068 92.8381 339.392 90.491 339.392 83.9712V55.0235H353.836ZM363.817 73.5402C363.817 60.2399 373.009 49.8083 385.353 49.8083C398.221 49.8083 406.363 60.2399 406.363 73.5402C406.363 74.5834 405.312 75.6265 404.262 75.6265H368.545C369.332 86.8405 377.474 93.3602 386.403 93.3602C391.918 93.3602 397.434 91.0131 401.11 87.1013C401.373 86.8405 401.898 86.5797 402.424 86.5797C403.474 86.5797 404.525 87.6229 404.525 88.666C404.525 89.1876 404.262 89.7092 403.737 90.2308C399.272 95.1858 392.706 97.7937 386.141 97.5329C374.06 97.5329 363.817 88.1444 363.817 73.801V73.5402ZM368.279 71.4538C369.067 61.5438 376.158 53.9809 385.087 53.9809C395.33 53.9809 400.845 62.3262 401.37 71.4538H368.279ZM423.434 64.1516C426.323 56.5887 433.414 51.1121 441.555 50.5905C442.868 50.5905 443.919 51.6337 443.919 53.1984C443.919 54.2416 443.131 55.5455 441.818 55.5455H441.555C431.838 56.5887 423.434 63.63 423.434 78.2342V94.9248C423.171 96.2287 422.383 97.0111 421.07 97.0111C420.019 97.0111 418.969 95.9679 418.969 94.9248V53.1984C419.232 51.8944 420.019 51.1121 421.333 51.1121C422.383 51.1121 423.434 52.1552 423.434 53.1984V64.1516ZM513.25 48.2431C510.099 48.2431 507.473 50.3294 506.685 53.4589L499.069 77.7123L491.452 53.4589C490.664 50.3294 487.776 47.9823 484.361 47.9823H483.574C480.159 47.9823 477.27 50.0686 476.483 53.4589L468.866 77.4515L461.513 53.1981C460.725 50.3294 458.099 47.9823 454.947 47.9823H454.684C451.27 47.9823 448.644 50.851 448.644 54.2412C448.644 55.2844 448.907 56.3276 449.169 57.3707L460.988 91.0126C461.775 94.4029 464.664 96.75 468.341 97.0108H468.866C472.281 97.0108 475.169 94.6637 476.22 91.2734L483.836 67.2807L491.452 91.2734C492.24 94.6637 495.392 97.0108 498.806 97.0108H499.331C503.008 97.0108 506.159 94.6637 506.947 91.0126L518.766 57.1099C519.028 56.3276 519.291 55.2844 519.291 54.502V54.2412C519.291 50.851 516.665 48.2431 513.25 48.2431ZM531.635 50.5909C536.625 49.0262 541.615 47.983 546.867 48.2438C554.221 48.2438 559.474 50.3301 563.413 53.7204C567.09 57.893 568.928 63.3696 568.665 68.8462V90.231C568.665 93.882 565.777 96.7507 562.1 96.7507C558.686 96.7507 555.797 94.4036 555.534 91.0133C551.857 94.9252 546.605 97.2723 541.09 97.0115C532.423 97.0115 524.807 91.7957 524.807 82.4073C524.807 71.9757 532.685 67.0207 543.978 67.0207C547.918 67.0207 551.857 67.5422 555.534 68.8462V68.0638C555.534 62.3264 552.12 59.4578 545.292 59.4578C542.14 59.4578 538.989 59.7185 535.837 60.7617C535.312 61.0225 534.524 61.0225 533.999 61.0225C530.847 61.2833 528.221 58.9362 528.221 55.8067C528.221 53.4596 529.534 51.3733 531.635 50.5909ZM555.798 79.2772C555.798 84.493 551.333 87.6225 545.03 87.3617C540.828 87.3617 537.677 85.2754 537.677 81.6243V81.3635C537.677 77.4517 541.354 74.8438 547.131 74.8438C550.02 74.8438 553.172 75.6261 555.798 76.6693V79.2772ZM609.112 52.6765C609.9 49.8078 612.526 47.9823 615.415 47.9823C619.092 47.9823 621.981 50.851 621.981 54.2412V54.502C621.981 55.5452 621.718 56.5883 621.193 57.6315L607.011 91.2734C605.698 94.6637 602.546 96.75 599.132 97.0108H598.344C594.667 96.75 591.778 94.4029 590.728 91.0126L576.021 57.3707C575.495 56.3276 575.233 55.2844 575.233 54.2412C575.495 50.5902 578.384 47.9823 581.799 47.9823C584.95 47.9823 587.576 50.0686 588.364 52.9373L598.607 80.3202L609.112 52.6765ZM650.869 47.7218C636.95 47.7218 627.233 58.9358 627.233 72.4969V74.5832C627.758 87.6227 639.051 97.7935 652.183 97.0111C658.223 97.0111 664.001 95.1856 668.728 91.2737C670.041 90.2306 670.566 88.9266 670.566 87.3619V87.1011C670.566 84.2324 668.203 81.8853 665.314 81.8853C664.263 81.8853 662.95 82.1461 662.162 82.9284C659.273 85.0148 655.859 86.3187 652.445 86.0579C646.667 86.3187 641.677 82.4069 640.89 76.6695H667.94C671.354 76.4087 673.981 73.54 673.718 70.1497V69.1066C673.718 57.371 663.476 47.461 650.869 47.7218ZM650.869 58.6749C645.354 58.6749 641.677 62.5868 640.626 68.8457H660.849C660.061 62.8476 656.384 58.6749 650.869 58.6749Z" fill="white"/>
<path fill-rule="evenodd" clip-rule="evenodd" d="M94.8861 1.04029C153.977 -7.82657 116.159 42.5059 97.775 56.5885C110.381 66.2378 123.25 79.7989 128.765 95.1855C139.008 123.351 113.795 127.523 94.8861 120.482C74.1385 113.18 55.7546 97.5326 43.6737 79.2773C40.2595 79.2773 36.5827 78.7557 33.1686 77.7125C39.9969 97.011 42.8858 116.831 41.0474 133C41.0474 100.401 25.5524 68.0633 3.22904 41.2019C-4.64979 31.8135 3.49167 24.7722 10.5826 33.8998C15.356 40.5102 19.7405 47.3891 23.714 54.5022C31.3302 27.9017 69.1486 4.69135 94.8861 1.04029ZM86.4816 49.0253C98.0372 41.984 133.229 4.16947 100.401 7.55973C81.4916 9.64605 58.643 27.119 49.1884 38.3329C62.3198 36.7682 75.7138 42.5056 86.4816 49.0253ZM48.9271 46.6786C57.8564 45.8962 67.5736 50.5904 74.9272 55.2846C67.8363 58.6749 59.9574 60.7612 51.816 61.2828C39.7351 61.2828 37.3715 47.7217 48.9271 46.6786ZM53.9178 78.2337C64.4229 89.9693 78.8674 101.444 94.3625 105.617C103.292 107.964 113.272 106.921 109.595 94.1419C105.918 82.4064 96.4635 71.9748 87.2715 64.1511C84.6452 65.9766 81.7563 67.8021 78.8674 69.1061C70.9886 73.5395 62.5845 76.669 53.9178 78.2337Z" fill="#F5A623"/>
</svg>
