<svg width="20" height="20" viewBox="0 0 20 20" fill="none" xmlns="http://www.w3.org/2000/svg">
<g clip-path="url(#clip0)">
<path d="M16.2761 3.71802C14.357 3.71802 12.7725 5.17728 12.5734 7.04442C13.9663 7.90853 14.8959 9.45142 14.8959 11.2076V13.7181C14.8959 14.6338 14.4832 15.4757 13.8074 16.0365V19.4081C13.8074 19.7317 14.0697 19.9941 14.3933 19.9941H18.1589C18.4825 19.9941 18.7449 19.7317 18.7449 19.4081V13.5808C19.4737 13.3355 20.0001 12.6457 20.0001 11.8352V7.44196C20.0001 5.3886 18.3295 3.71802 16.2761 3.71802Z" fill="#333333"/>
<path d="M16.2761 3.71793C17.3027 3.71793 18.138 2.88265 18.138 1.85593C18.0445 -0.610864 14.5073 -0.610161 14.4141 1.85597C14.4141 2.88265 15.2493 3.71793 16.2761 3.71793Z" fill="#333333"/>
<path d="M11.8624 5.62127C11.8624 4.59455 11.0271 3.75928 10.0004 3.75928C7.53362 3.85287 7.53428 7.39002 10.0005 7.48326C11.0271 7.48326 11.8624 6.64799 11.8624 5.62127Z" fill="#333333"/>
<path d="M10.0001 7.4834C8.08096 7.4834 6.49643 8.94266 6.29736 10.8098C7.69021 11.6739 8.61986 13.2168 8.61986 14.973V15.6006C8.61986 16.5163 8.20717 17.3582 7.53131 17.9191V19.4079C7.53131 19.7315 7.79365 19.9938 8.11725 19.9938H11.8829C12.2065 19.9938 12.4688 19.7315 12.4688 19.4079V15.4634C13.1977 15.2181 13.724 14.5283 13.724 13.7178V11.2073C13.724 9.15395 12.0535 7.4834 10.0001 7.4834Z" fill="#333333"/>
<path d="M3.72395 11.249C1.66355 11.249 0 12.9167 0 14.973V15.6005C0 16.4111 0.526328 17.1009 1.2552 17.3461V19.4079C1.2552 19.7314 1.51754 19.9938 1.84113 19.9938H5.60676C5.93035 19.9938 6.1927 19.7314 6.1927 19.4079V17.3461C6.92156 17.1009 7.44789 16.4111 7.44789 15.6005V14.973C7.44793 12.9129 5.78066 11.249 3.72395 11.249Z" fill="#333333"/>
<path d="M3.72393 11.2494C4.75061 11.2494 5.58592 10.4142 5.58592 9.38743C5.49233 6.92063 1.95518 6.92133 1.86194 9.38747C1.86198 10.4142 2.69725 11.2494 3.72393 11.2494Z" fill="#333333"/>
</g>
<defs>
<clipPath id="clip0">
<rect width="20" height="20" fill="white"/>
</clipPath>
</defs>
</svg>
