<svg width="24" height="28" viewBox="0 0 24 28" fill="none" xmlns="http://www.w3.org/2000/svg">
<ellipse cx="12" cy="26" rx="12" ry="2" fill="black" fill-opacity="0.6"/>
<g clip-path="url(#clip0)">
<path d="M19.1054 4.10988C17.6488 1.59626 15.0617 0.0605859 12.1848 0.00189844C12.0619 -0.000632813 11.9383 -0.000632813 11.8155 0.00189844C8.93857 0.0605859 6.35145 1.59626 4.89485 4.10988C3.40601 6.6792 3.36528 9.76544 4.78587 12.3656L10.7373 23.2588C10.7399 23.2636 10.7426 23.2684 10.7454 23.2732C11.0072 23.7283 11.4763 24 12.0002 24C12.5241 24 12.9932 23.7283 13.255 23.2732C13.2577 23.2684 13.2604 23.2636 13.2631 23.2588L19.2145 12.3656C20.635 9.76544 20.5942 6.6792 19.1054 4.10988ZM12.0001 10.875C10.1391 10.875 8.62512 9.36101 8.62512 7.50002C8.62512 5.63904 10.1391 4.12502 12.0001 4.12502C13.8611 4.12502 15.3751 5.63904 15.3751 7.50002C15.3751 9.36101 13.8611 10.875 12.0001 10.875Z" fill="black"/>
</g>
<defs>
<clipPath id="clip0">
<rect width="24" height="24" fill="white"/>
</clipPath>
</defs>
</svg>
