<svg width="24" height="24" viewBox="0 0 24 24" fill="none" xmlns="http://www.w3.org/2000/svg">
<g clip-path="url(#clip0)">
<path d="M11.294 13.9387V20.9634C11.294 21.6647 11.8646 22.2354 12.566 22.2354H13.4117V12.6667H12.566C11.8646 12.6667 11.294 13.2373 11.294 13.9387Z" fill="black"/>
<path d="M22.7277 12.6667H21.8821V22.2354H22.7277C23.4291 22.2354 23.9997 21.6648 23.9997 20.9634V13.9387C23.9997 13.2373 23.4291 12.6667 22.7277 12.6667Z" fill="black"/>
<path d="M19.0237 9.76465H16.27C15.4723 9.76465 14.8233 10.4136 14.8233 11.2114V22.2352H20.4704V11.2114C20.4704 10.4136 19.8214 9.76465 19.0237 9.76465ZM16.2351 12.6666V11.2114C16.2351 11.1921 16.2508 11.1764 16.2701 11.1764H19.0237C19.043 11.1764 19.0587 11.1921 19.0587 11.2114V12.6666H16.2351Z" fill="black"/>
<path d="M9.17344 6.47053H8.47057V3.53632C8.47057 2.55942 7.6758 1.76465 6.6989 1.76465H4.59519C3.61829 1.76465 2.82351 2.55942 2.82351 3.53632V6.47053H2.12064C0.951326 6.47053 -1.52588e-05 7.42187 -1.52588e-05 8.59119V18.7028C-1.52588e-05 19.8721 0.951326 20.8235 2.12064 20.8235H2.82351V22.2352H4.23528V20.8235H7.05881V22.2352H8.47057V20.8235H9.17344C9.42206 20.8235 9.66055 20.78 9.88234 20.701V13.9386C9.88234 12.9187 10.4542 12.0301 11.2941 11.576V8.59119C11.2941 7.42187 10.3428 6.47053 9.17344 6.47053ZM4.23528 17.9999H2.82351V9.52935H4.23528V17.9999ZM4.23528 6.47053V3.53632C4.23528 3.33787 4.39674 3.17641 4.59519 3.17641H6.69886C6.8973 3.17641 7.05876 3.33787 7.05876 3.53632V6.47053H4.23528ZM8.47057 17.9999H7.05881V9.52935H8.47057V17.9999Z" fill="black"/>
</g>
<defs>
<clipPath id="clip0">
<rect width="24" height="24" fill="white"/>
</clipPath>
</defs>
</svg>
