<svg width="24" height="24" viewBox="0 0 24 24" fill="none" xmlns="http://www.w3.org/2000/svg">
<path d="M14.483 5.36769C15.5927 6.06346 16.3708 7.24085 16.5125 8.60753C16.965 8.81898 17.4673 8.94058 17.9999 8.94058C19.944 8.94058 21.5197 7.36484 21.5197 5.421C21.5197 3.47686 19.944 1.90112 17.9999 1.90112C16.0743 1.90172 14.5123 3.44931 14.483 5.36769ZM12.177 12.5746C14.1212 12.5746 15.6969 10.9985 15.6969 9.0547C15.6969 7.11086 14.1209 5.53512 12.177 5.53512C10.2332 5.53512 8.65653 7.11116 8.65653 9.055C8.65653 10.9988 10.2332 12.5746 12.177 12.5746ZM13.6701 12.8145H10.6833C8.19828 12.8145 6.17656 14.8365 6.17656 17.3216V20.9741L6.18585 21.0313L6.43744 21.1101C8.80899 21.8511 10.8693 22.0982 12.5652 22.0982C15.8775 22.0982 17.7974 21.1538 17.9157 21.0936L18.1508 20.9747H18.176V17.3216C18.1769 14.8365 16.1551 12.8145 13.6701 12.8145ZM19.4935 9.18079H16.5298C16.4978 10.3666 15.9916 11.4343 15.191 12.2023C17.3999 12.8591 19.0161 14.9075 19.0161 17.327V18.4525C21.9423 18.3453 23.6286 17.516 23.7397 17.4602L23.9748 17.341H24V13.6873C24 11.2025 21.9783 9.18079 19.4935 9.18079ZM6.00075 8.94118C6.68933 8.94118 7.32999 8.74021 7.87271 8.39787C8.04523 7.27259 8.64845 6.28929 9.51015 5.61958C9.51374 5.55369 9.52003 5.48839 9.52003 5.4219C9.52003 3.47776 7.94399 1.90202 6.00075 1.90202C4.05631 1.90202 2.48087 3.47776 2.48087 5.4219C2.48087 7.36514 4.05631 8.94118 6.00075 8.94118ZM9.16181 12.2023C8.36511 11.4382 7.86073 10.3762 7.82389 9.19757C7.71397 9.18948 7.60524 9.18079 7.49322 9.18079H4.50678C2.02171 9.18079 0 11.2025 0 13.6873V17.3404L0.00928491 17.3967L0.260876 17.4761C2.16338 18.07 3.86133 18.3438 5.33613 18.4301V17.327C5.33673 14.9075 6.9523 12.8597 9.16181 12.2023Z" fill="black"/>
</svg>
